<svg xmlns="http://www.w3.org/2000/svg" xmlns:xlink="http://www.w3.org/1999/xlink" width="500" zoomAndPan="magnify" viewBox="0 0 375 374.999991" height="500" preserveAspectRatio="xMidYMid meet" version="1.0"><defs><g/></defs><g fill="#000000" fill-opacity="1"><g transform="translate(0.0000045, 251.309663)"><g><path d="M 35.546875 -30.671875 C 35.546875 -26.773438 36.316406 -22.960938 37.859375 -19.234375 C 39.398438 -15.503906 41.507812 -12.21875 44.1875 -9.375 C 46.863281 -6.53125 49.988281 -4.253906 53.5625 -2.546875 C 57.132812 -0.847656 60.867188 0 64.765625 0 L 6.09375 0 C 9.988281 0 13.71875 -0.847656 17.28125 -2.546875 C 20.851562 -4.253906 23.976562 -6.53125 26.65625 -9.375 C 29.332031 -12.21875 31.484375 -15.503906 33.109375 -19.234375 C 34.734375 -22.960938 35.546875 -26.773438 35.546875 -30.671875 Z M 112.984375 -79.125 C 116.066406 -79.125 118.175781 -80.671875 119.3125 -83.765625 L 116.875 -76.703125 L 90.09375 0 L 47.71875 -122.46875 C 46.582031 -125.394531 44.472656 -126.859375 41.390625 -126.859375 C 39.609375 -126.859375 38.066406 -126.207031 36.765625 -124.90625 C 35.460938 -123.601562 34.8125 -122.0625 34.8125 -120.28125 L 34.8125 -154.375 C 34.8125 -158.425781 33.269531 -162.113281 30.1875 -165.4375 C 27.101562 -168.769531 23.535156 -170.4375 19.484375 -170.4375 L 76.453125 -170.4375 L 102.5 -95.6875 L 106.640625 -83.765625 C 106.972656 -82.460938 107.742188 -81.363281 108.953125 -80.46875 C 110.171875 -79.570312 111.515625 -79.125 112.984375 -79.125 Z M 202.09375 -170.4375 C 198.03125 -170.4375 194.578125 -168.769531 191.734375 -165.4375 C 188.898438 -162.113281 187.484375 -158.425781 187.484375 -154.375 L 187.484375 -16.0625 C 187.484375 -12.007812 188.898438 -8.316406 191.734375 -4.984375 C 194.578125 -1.660156 198.03125 0 202.09375 0 L 129.78125 0 C 134 0 137.523438 -1.660156 140.359375 -4.984375 C 143.203125 -8.316406 144.625 -12.007812 144.625 -16.0625 L 144.625 -121.5 C 144.625 -123.28125 143.929688 -124.859375 142.546875 -126.234375 C 141.171875 -127.617188 139.59375 -128.3125 137.8125 -128.3125 C 134.726562 -128.3125 132.617188 -126.769531 131.484375 -123.6875 L 135.625 -135.859375 L 147.3125 -170.4375 Z M 202.09375 -170.4375 "/></g></g></g><g fill="#000000" fill-opacity="1"><g transform="translate(208.15997, 251.309663)"><g><path d="M 38.953125 -27.03125 C 38.953125 -23.289062 39.640625 -19.753906 41.015625 -16.421875 C 42.398438 -13.097656 44.3125 -10.21875 46.75 -7.78125 C 49.1875 -5.351562 52.023438 -3.445312 55.265625 -2.0625 C 58.515625 -0.6875 62.003906 0 65.734375 0 L 6.09375 0 C 9.65625 -0.488281 13.097656 -1.625 16.421875 -3.40625 C 19.753906 -5.195312 22.878906 -7.429688 25.796875 -10.109375 C 28.722656 -12.785156 31.320312 -15.742188 33.59375 -18.984375 C 35.875 -22.234375 37.660156 -25.5625 38.953125 -28.96875 Z M 85.703125 0 C 89.109375 0 92.03125 -1.414062 94.46875 -4.25 C 96.90625 -7.09375 98.125 -10.300781 98.125 -13.875 C 98.125 -14.53125 98.125 -15.179688 98.125 -15.828125 C 98.125 -16.472656 97.960938 -17.125 97.640625 -17.78125 L 90.578125 -38.234375 L 90.09375 -39.6875 L 72.796875 -89.609375 C 71.660156 -92.359375 69.632812 -93.734375 66.71875 -93.734375 C 63.957031 -93.734375 62.007812 -92.359375 60.875 -89.609375 L 90.09375 -170.4375 L 117.109375 -92.765625 C 118.253906 -89.515625 119.554688 -85.65625 121.015625 -81.1875 C 122.472656 -76.726562 123.769531 -72.878906 124.90625 -69.640625 L 144.875 -12.65625 C 146.007812 -9.414062 147.992188 -6.492188 150.828125 -3.890625 C 153.671875 -1.296875 156.960938 0 160.703125 0 Z M 85.703125 0 "/></g></g></g><g fill="#000000" fill-opacity="1"><g transform="translate(10.631787, 294.932733)"><g><path d="M 40.546875 -29.765625 C 39.617188 -29.710938 38.945312 -29.597656 38.53125 -29.421875 C 38.113281 -29.242188 37.832031 -28.910156 37.6875 -28.421875 C 37.539062 -27.929688 37.46875 -27.140625 37.46875 -26.046875 L 37.46875 -4.59375 C 37.46875 -3.488281 37.546875 -2.691406 37.703125 -2.203125 C 37.859375 -1.710938 38.140625 -1.378906 38.546875 -1.203125 C 38.953125 -1.035156 39.617188 -0.921875 40.546875 -0.859375 L 40.546875 0 C 38.785156 -0.0820312 36.226562 -0.125 32.875 -0.125 C 29.382812 -0.125 26.820312 -0.0820312 25.1875 0 L 25.1875 -0.859375 C 26.21875 -0.921875 26.972656 -1.035156 27.453125 -1.203125 C 27.929688 -1.378906 28.253906 -1.710938 28.421875 -2.203125 C 28.597656 -2.691406 28.6875 -3.488281 28.6875 -4.59375 L 28.6875 -26.6875 L 18.265625 -0.046875 L 17.5625 -0.046875 L 5.359375 -27.8125 L 5.359375 -8.484375 C 5.359375 -6.347656 5.445312 -4.8125 5.625 -3.875 C 5.800781 -2.9375 6.179688 -2.25 6.765625 -1.8125 C 7.359375 -1.382812 8.347656 -1.066406 9.734375 -0.859375 L 9.734375 0 C 8.546875 -0.0820312 6.929688 -0.125 4.890625 -0.125 C 3.359375 -0.125 2.160156 -0.0820312 1.296875 0 L 1.296875 -0.859375 C 2.191406 -1.066406 2.851562 -1.378906 3.28125 -1.796875 C 3.71875 -2.210938 4.007812 -2.851562 4.15625 -3.71875 C 4.300781 -4.582031 4.375 -5.878906 4.375 -7.609375 L 4.375 -26.046875 C 4.375 -27.140625 4.289062 -27.929688 4.125 -28.421875 C 3.96875 -28.910156 3.6875 -29.242188 3.28125 -29.421875 C 2.882812 -29.597656 2.222656 -29.710938 1.296875 -29.765625 L 1.296875 -30.625 C 2.160156 -30.539062 3.359375 -30.5 4.890625 -30.5 C 8.347656 -30.5 11.332031 -30.539062 13.84375 -30.625 L 22.015625 -12.25 L 29.125 -30.5 L 32.875 -30.5 C 36.226562 -30.5 38.785156 -30.539062 40.546875 -30.625 Z M 40.546875 -29.765625 "/></g></g></g><g fill="#000000" fill-opacity="1"><g transform="translate(52.37174, 294.932733)"><g><path d="M 6.53125 0.296875 C 4.6875 0.296875 3.296875 -0.195312 2.359375 -1.1875 C 1.421875 -2.1875 0.953125 -3.4375 0.953125 -4.9375 C 0.953125 -6.226562 1.289062 -7.300781 1.96875 -8.15625 C 2.644531 -9.007812 3.441406 -9.664062 4.359375 -10.125 C 5.285156 -10.582031 6.484375 -11.054688 7.953125 -11.546875 C 9.515625 -12.066406 10.65625 -12.539062 11.375 -12.96875 C 12.09375 -13.40625 12.453125 -14.015625 12.453125 -14.796875 L 12.453125 -18.640625 C 12.453125 -19.566406 12.222656 -20.390625 11.765625 -21.109375 C 11.304688 -21.828125 10.515625 -22.1875 9.390625 -22.1875 C 8.492188 -22.1875 7.6875 -21.941406 6.96875 -21.453125 C 7.945312 -21.109375 8.671875 -20.597656 9.140625 -19.921875 C 9.617188 -19.242188 9.859375 -18.488281 9.859375 -17.65625 C 9.859375 -16.53125 9.460938 -15.628906 8.671875 -14.953125 C 7.878906 -14.273438 6.921875 -13.9375 5.796875 -13.9375 C 4.671875 -13.9375 3.78125 -14.285156 3.125 -14.984375 C 2.476562 -15.691406 2.15625 -16.597656 2.15625 -17.703125 C 2.15625 -18.566406 2.375 -19.3125 2.8125 -19.9375 C 3.25 -20.570312 3.925781 -21.148438 4.84375 -21.671875 C 6.457031 -22.597656 8.765625 -23.0625 11.765625 -23.0625 C 13.347656 -23.0625 14.71875 -22.910156 15.875 -22.609375 C 17.03125 -22.304688 18.015625 -21.734375 18.828125 -20.890625 C 19.398438 -20.285156 19.78125 -19.53125 19.96875 -18.625 C 20.15625 -17.71875 20.25 -16.457031 20.25 -14.84375 L 20.25 -3.25 C 20.25 -2.519531 20.296875 -2.023438 20.390625 -1.765625 C 20.492188 -1.515625 20.675781 -1.390625 20.9375 -1.390625 C 21.144531 -1.390625 21.363281 -1.453125 21.59375 -1.578125 C 21.820312 -1.710938 22.035156 -1.863281 22.234375 -2.03125 L 22.671875 -1.296875 C 21.429688 -0.234375 19.65625 0.296875 17.34375 0.296875 C 15.613281 0.296875 14.398438 0.00390625 13.703125 -0.578125 C 13.015625 -1.171875 12.644531 -1.972656 12.59375 -2.984375 C 11.238281 -0.796875 9.21875 0.296875 6.53125 0.296875 Z M 10.859375 -3.15625 C 11.460938 -3.15625 11.992188 -3.398438 12.453125 -3.890625 L 12.453125 -13.015625 C 12.203125 -12.585938 11.726562 -12.023438 11.03125 -11.328125 C 10.25 -10.578125 9.65625 -9.847656 9.25 -9.140625 C 8.851562 -8.441406 8.65625 -7.488281 8.65625 -6.28125 C 8.65625 -4.195312 9.390625 -3.15625 10.859375 -3.15625 Z M 10.859375 -3.15625 "/></g></g></g><g fill="#000000" fill-opacity="1"><g transform="translate(75.339527, 294.932733)"><g><path d="M 6.53125 0.296875 C 4.6875 0.296875 3.296875 -0.195312 2.359375 -1.1875 C 1.421875 -2.1875 0.953125 -3.4375 0.953125 -4.9375 C 0.953125 -6.226562 1.289062 -7.300781 1.96875 -8.15625 C 2.644531 -9.007812 3.441406 -9.664062 4.359375 -10.125 C 5.285156 -10.582031 6.484375 -11.054688 7.953125 -11.546875 C 9.515625 -12.066406 10.65625 -12.539062 11.375 -12.96875 C 12.09375 -13.40625 12.453125 -14.015625 12.453125 -14.796875 L 12.453125 -18.640625 C 12.453125 -19.566406 12.222656 -20.390625 11.765625 -21.109375 C 11.304688 -21.828125 10.515625 -22.1875 9.390625 -22.1875 C 8.492188 -22.1875 7.6875 -21.941406 6.96875 -21.453125 C 7.945312 -21.109375 8.671875 -20.597656 9.140625 -19.921875 C 9.617188 -19.242188 9.859375 -18.488281 9.859375 -17.65625 C 9.859375 -16.53125 9.460938 -15.628906 8.671875 -14.953125 C 7.878906 -14.273438 6.921875 -13.9375 5.796875 -13.9375 C 4.671875 -13.9375 3.78125 -14.285156 3.125 -14.984375 C 2.476562 -15.691406 2.15625 -16.597656 2.15625 -17.703125 C 2.15625 -18.566406 2.375 -19.3125 2.8125 -19.9375 C 3.25 -20.570312 3.925781 -21.148438 4.84375 -21.671875 C 6.457031 -22.597656 8.765625 -23.0625 11.765625 -23.0625 C 13.347656 -23.0625 14.71875 -22.910156 15.875 -22.609375 C 17.03125 -22.304688 18.015625 -21.734375 18.828125 -20.890625 C 19.398438 -20.285156 19.78125 -19.53125 19.96875 -18.625 C 20.15625 -17.71875 20.25 -16.457031 20.25 -14.84375 L 20.25 -3.25 C 20.25 -2.519531 20.296875 -2.023438 20.390625 -1.765625 C 20.492188 -1.515625 20.675781 -1.390625 20.9375 -1.390625 C 21.144531 -1.390625 21.363281 -1.453125 21.59375 -1.578125 C 21.820312 -1.710938 22.035156 -1.863281 22.234375 -2.03125 L 22.671875 -1.296875 C 21.429688 -0.234375 19.65625 0.296875 17.34375 0.296875 C 15.613281 0.296875 14.398438 0.00390625 13.703125 -0.578125 C 13.015625 -1.171875 12.644531 -1.972656 12.59375 -2.984375 C 11.238281 -0.796875 9.21875 0.296875 6.53125 0.296875 Z M 10.859375 -3.15625 C 11.460938 -3.15625 11.992188 -3.398438 12.453125 -3.890625 L 12.453125 -13.015625 C 12.203125 -12.585938 11.726562 -12.023438 11.03125 -11.328125 C 10.25 -10.578125 9.65625 -9.847656 9.25 -9.140625 C 8.851562 -8.441406 8.65625 -7.488281 8.65625 -6.28125 C 8.65625 -4.195312 9.390625 -3.15625 10.859375 -3.15625 Z M 10.859375 -3.15625 "/></g></g></g><g fill="#000000" fill-opacity="1"><g transform="translate(98.307314, 294.932733)"><g><path d="M 18 -23.0625 C 20.300781 -23.0625 21.929688 -22.484375 22.890625 -21.328125 C 23.316406 -20.804688 23.628906 -20.101562 23.828125 -19.21875 C 24.035156 -18.34375 24.140625 -17.1875 24.140625 -15.75 L 24.140625 -4.03125 C 24.140625 -2.84375 24.316406 -2.023438 24.671875 -1.578125 C 25.035156 -1.128906 25.664062 -0.90625 26.5625 -0.90625 L 26.5625 0 C 23.445312 -0.113281 21.429688 -0.171875 20.515625 -0.171875 C 19.523438 -0.171875 17.472656 -0.113281 14.359375 0 L 14.359375 -0.90625 C 15.109375 -0.90625 15.628906 -1.128906 15.921875 -1.578125 C 16.210938 -2.023438 16.359375 -2.84375 16.359375 -4.03125 L 16.359375 -18.078125 C 16.359375 -19.003906 16.191406 -19.691406 15.859375 -20.140625 C 15.523438 -20.585938 14.984375 -20.8125 14.234375 -20.8125 C 13.398438 -20.8125 12.671875 -20.515625 12.046875 -19.921875 C 11.429688 -19.328125 11.125 -18.585938 11.125 -17.703125 L 11.125 -4.03125 C 11.125 -2.84375 11.265625 -2.023438 11.546875 -1.578125 C 11.835938 -1.128906 12.359375 -0.90625 13.109375 -0.90625 L 13.109375 0 C 10.222656 -0.113281 8.316406 -0.171875 7.390625 -0.171875 C 6.410156 -0.171875 4.25 -0.113281 0.90625 0 L 0.90625 -0.90625 C 1.800781 -0.90625 2.425781 -1.128906 2.78125 -1.578125 C 3.144531 -2.023438 3.328125 -2.84375 3.328125 -4.03125 L 3.328125 -17.734375 C 3.328125 -19.066406 3.144531 -20.035156 2.78125 -20.640625 C 2.425781 -21.242188 1.800781 -21.546875 0.90625 -21.546875 L 0.90625 -22.453125 C 1.832031 -22.367188 2.726562 -22.328125 3.59375 -22.328125 C 6.59375 -22.328125 9.101562 -22.53125 11.125 -22.9375 L 11.125 -19.8125 C 12.414062 -21.976562 14.707031 -23.0625 18 -23.0625 Z M 18 -23.0625 "/></g></g></g><g fill="#000000" fill-opacity="1"><g transform="translate(125.340958, 294.932733)"><g><path d="M 10 -23.0625 C 11.125 -23.0625 12.179688 -22.9375 13.171875 -22.6875 C 14.171875 -22.445312 14.929688 -22.179688 15.453125 -21.890625 C 15.765625 -21.710938 16.019531 -21.625 16.21875 -21.625 C 16.832031 -21.625 17.195312 -22.085938 17.3125 -23.015625 L 18.171875 -23.015625 C 18.054688 -21.515625 18 -18.921875 18 -15.234375 L 17.140625 -15.234375 C 16.898438 -17.128906 16.351562 -18.734375 15.5 -20.046875 C 14.65625 -21.359375 13.425781 -22.015625 11.8125 -22.015625 C 11.09375 -22.015625 10.488281 -21.796875 10 -21.359375 C 9.507812 -20.929688 9.265625 -20.34375 9.265625 -19.59375 C 9.265625 -18.644531 9.578125 -17.800781 10.203125 -17.0625 C 10.835938 -16.332031 11.835938 -15.429688 13.203125 -14.359375 C 13.253906 -14.335938 13.671875 -14.007812 14.453125 -13.375 C 16.066406 -12.039062 17.25 -10.863281 18 -9.84375 C 18.75 -8.820312 19.125 -7.5625 19.125 -6.0625 C 19.125 -4.789062 18.734375 -3.640625 17.953125 -2.609375 C 17.171875 -1.585938 16.109375 -0.796875 14.765625 -0.234375 C 13.429688 0.328125 11.972656 0.609375 10.390625 0.609375 C 8.566406 0.609375 7.078125 0.25 5.921875 -0.46875 C 5.429688 -0.726562 5.023438 -0.914062 4.703125 -1.03125 C 4.390625 -1.15625 4.078125 -1.21875 3.765625 -1.21875 C 3.210938 -1.21875 2.804688 -0.710938 2.546875 0.296875 L 1.6875 0.296875 C 1.800781 -1.335938 1.859375 -4.21875 1.859375 -8.34375 L 2.71875 -8.34375 C 2.976562 -5.976562 3.613281 -4.070312 4.625 -2.625 C 5.632812 -1.1875 6.90625 -0.46875 8.4375 -0.46875 C 9.15625 -0.46875 9.753906 -0.671875 10.234375 -1.078125 C 10.710938 -1.484375 10.953125 -2.078125 10.953125 -2.859375 C 10.953125 -3.660156 10.785156 -4.378906 10.453125 -5.015625 C 10.117188 -5.648438 9.710938 -6.21875 9.234375 -6.71875 C 8.753906 -7.226562 7.984375 -7.957031 6.921875 -8.90625 C 5.710938 -10.03125 4.789062 -10.925781 4.15625 -11.59375 C 3.519531 -12.257812 2.976562 -13.03125 2.53125 -13.90625 C 2.082031 -14.789062 1.859375 -15.765625 1.859375 -16.828125 C 1.859375 -18.066406 2.234375 -19.160156 2.984375 -20.109375 C 3.734375 -21.066406 4.726562 -21.796875 5.96875 -22.296875 C 7.207031 -22.804688 8.550781 -23.0625 10 -23.0625 Z M 10 -23.0625 "/></g></g></g><g fill="#000000" fill-opacity="1"><g transform="translate(145.75677, 294.932733)"><g><path d="M 6.96875 -33.828125 C 8.46875 -33.828125 9.628906 -33.507812 10.453125 -32.875 C 11.273438 -32.25 11.6875 -31.328125 11.6875 -30.109375 C 11.6875 -28.898438 11.273438 -27.976562 10.453125 -27.34375 C 9.628906 -26.707031 8.46875 -26.390625 6.96875 -26.390625 C 5.4375 -26.390625 4.265625 -26.707031 3.453125 -27.34375 C 2.648438 -27.976562 2.25 -28.898438 2.25 -30.109375 C 2.25 -31.328125 2.648438 -32.25 3.453125 -32.875 C 4.265625 -33.507812 5.4375 -33.828125 6.96875 -33.828125 Z M 11.125 -4.03125 C 11.125 -2.84375 11.300781 -2.023438 11.65625 -1.578125 C 12.019531 -1.128906 12.648438 -0.90625 13.546875 -0.90625 L 13.546875 0 C 10.429688 -0.113281 8.378906 -0.171875 7.390625 -0.171875 C 6.410156 -0.171875 4.25 -0.113281 0.90625 0 L 0.90625 -0.90625 C 1.800781 -0.90625 2.425781 -1.128906 2.78125 -1.578125 C 3.144531 -2.023438 3.328125 -2.84375 3.328125 -4.03125 L 3.328125 -17.734375 C 3.328125 -19.066406 3.144531 -20.035156 2.78125 -20.640625 C 2.425781 -21.242188 1.800781 -21.546875 0.90625 -21.546875 L 0.90625 -22.453125 C 1.832031 -22.367188 2.726562 -22.328125 3.59375 -22.328125 C 6.59375 -22.328125 9.101562 -22.53125 11.125 -22.9375 Z M 11.125 -4.03125 "/></g></g></g><g fill="#000000" fill-opacity="1"><g transform="translate(160.030539, 294.932733)"><g/></g></g><g fill="#000000" fill-opacity="1"><g transform="translate(169.676146, 294.932733)"><g><path d="M 27.6875 -3.640625 C 28.0625 -2.710938 28.472656 -2.023438 28.921875 -1.578125 C 29.367188 -1.128906 29.8125 -0.890625 30.25 -0.859375 L 30.25 0 C 28.164062 -0.0820312 25.539062 -0.125 22.375 -0.125 C 19.082031 -0.125 16.65625 -0.0820312 15.09375 0 L 15.09375 -0.859375 C 16.195312 -0.921875 16.976562 -1.054688 17.4375 -1.265625 C 17.894531 -1.484375 18.125 -1.867188 18.125 -2.421875 C 18.125 -2.941406 17.953125 -3.632812 17.609375 -4.5 L 15.0625 -11.59375 L 6.3125 -11.59375 L 5.578125 -9.640625 C 4.628906 -7.191406 4.15625 -5.320312 4.15625 -4.03125 C 4.15625 -2.84375 4.484375 -2.03125 5.140625 -1.59375 C 5.804688 -1.164062 6.789062 -0.921875 8.09375 -0.859375 L 8.09375 0 C 5.925781 -0.0820312 4.035156 -0.125 2.421875 -0.125 C 1.066406 -0.125 -0.0390625 -0.0820312 -0.90625 0 L -0.90625 -0.859375 C -0.1875 -0.972656 0.488281 -1.421875 1.125 -2.203125 C 1.757812 -2.984375 2.410156 -4.222656 3.078125 -5.921875 L 12.671875 -30.625 C 13.597656 -30.570312 14.363281 -30.546875 14.96875 -30.546875 C 15.539062 -30.546875 16.289062 -30.570312 17.21875 -30.625 Z M 14.75 -12.453125 L 10.8125 -23.28125 L 6.65625 -12.453125 Z M 14.75 -12.453125 "/></g></g></g><g fill="#000000" fill-opacity="1"><g transform="translate(199.6078, 294.932733)"><g><path d="M 22.328125 -18.078125 C 21.722656 -18.078125 21.195312 -18.285156 20.75 -18.703125 C 20.300781 -19.128906 20.078125 -19.71875 20.078125 -20.46875 C 20.078125 -21.15625 20.28125 -21.90625 20.6875 -22.71875 C 19.414062 -22.195312 18.476562 -21.460938 17.875 -20.515625 C 18.9375 -19.390625 19.46875 -17.929688 19.46875 -16.140625 C 19.46875 -13.859375 18.625 -12.132812 16.9375 -10.96875 C 15.25 -9.800781 12.992188 -9.21875 10.171875 -9.21875 C 9.617188 -9.21875 9.210938 -9.234375 8.953125 -9.265625 C 8.203125 -8.742188 7.828125 -8.132812 7.828125 -7.4375 C 7.828125 -6.519531 8.347656 -6.0625 9.390625 -6.0625 L 13.578125 -6.0625 C 16.523438 -6.0625 18.828125 -5.5625 20.484375 -4.5625 C 22.140625 -3.570312 22.96875 -2.019531 22.96875 0.09375 C 22.96875 1.59375 22.484375 2.945312 21.515625 4.15625 C 20.554688 5.363281 19.070312 6.328125 17.0625 7.046875 C 15.0625 7.773438 12.5625 8.140625 9.5625 8.140625 C 6.59375 8.140625 4.253906 7.804688 2.546875 7.140625 C 0.847656 6.472656 0 5.535156 0 4.328125 C 0 3.492188 0.414062 2.726562 1.25 2.03125 C 2.09375 1.34375 3.363281 0.796875 5.0625 0.390625 L 5.5 1.078125 C 4.71875 2.035156 4.328125 2.957031 4.328125 3.84375 C 4.328125 4.96875 4.835938 5.835938 5.859375 6.453125 C 6.878906 7.078125 8.316406 7.390625 10.171875 7.390625 C 12.066406 7.390625 13.523438 7.007812 14.546875 6.25 C 15.578125 5.488281 16.09375 4.472656 16.09375 3.203125 C 16.09375 2.304688 15.753906 1.59375 15.078125 1.0625 C 14.398438 0.53125 13.210938 0.265625 11.515625 0.265625 L 9.171875 0.265625 C 7.210938 0.265625 5.710938 -0.109375 4.671875 -0.859375 C 3.628906 -1.609375 3.109375 -2.617188 3.109375 -3.890625 C 3.109375 -5.046875 3.519531 -6.054688 4.34375 -6.921875 C 5.164062 -7.785156 6.359375 -8.59375 7.921875 -9.34375 C 5.722656 -9.632812 3.992188 -10.347656 2.734375 -11.484375 C 1.484375 -12.628906 0.859375 -14.179688 0.859375 -16.140625 C 0.859375 -18.421875 1.703125 -20.144531 3.390625 -21.3125 C 5.078125 -22.476562 7.335938 -23.0625 10.171875 -23.0625 C 13.191406 -23.0625 15.523438 -22.425781 17.171875 -21.15625 C 17.722656 -21.90625 18.382812 -22.492188 19.15625 -22.921875 C 19.9375 -23.359375 20.757812 -23.578125 21.625 -23.578125 C 22.582031 -23.578125 23.320312 -23.3125 23.84375 -22.78125 C 24.363281 -22.25 24.625 -21.5625 24.625 -20.71875 C 24.625 -19.914062 24.40625 -19.273438 23.96875 -18.796875 C 23.53125 -18.316406 22.984375 -18.078125 22.328125 -18.078125 Z M 10.171875 -10 C 10.742188 -10 11.179688 -10.46875 11.484375 -11.40625 C 11.785156 -12.34375 11.9375 -13.921875 11.9375 -16.140625 C 11.9375 -18.359375 11.785156 -19.9375 11.484375 -20.875 C 11.179688 -21.8125 10.742188 -22.28125 10.171875 -22.28125 C 9.585938 -22.28125 9.144531 -21.8125 8.84375 -20.875 C 8.539062 -19.9375 8.390625 -18.359375 8.390625 -16.140625 C 8.390625 -13.921875 8.539062 -12.34375 8.84375 -11.40625 C 9.144531 -10.46875 9.585938 -10 10.171875 -10 Z M 10.171875 -10 "/></g></g></g><g fill="#000000" fill-opacity="1"><g transform="translate(224.262481, 294.932733)"><g><path d="M 22.328125 -18.078125 C 21.722656 -18.078125 21.195312 -18.285156 20.75 -18.703125 C 20.300781 -19.128906 20.078125 -19.71875 20.078125 -20.46875 C 20.078125 -21.15625 20.28125 -21.90625 20.6875 -22.71875 C 19.414062 -22.195312 18.476562 -21.460938 17.875 -20.515625 C 18.9375 -19.390625 19.46875 -17.929688 19.46875 -16.140625 C 19.46875 -13.859375 18.625 -12.132812 16.9375 -10.96875 C 15.25 -9.800781 12.992188 -9.21875 10.171875 -9.21875 C 9.617188 -9.21875 9.210938 -9.234375 8.953125 -9.265625 C 8.203125 -8.742188 7.828125 -8.132812 7.828125 -7.4375 C 7.828125 -6.519531 8.347656 -6.0625 9.390625 -6.0625 L 13.578125 -6.0625 C 16.523438 -6.0625 18.828125 -5.5625 20.484375 -4.5625 C 22.140625 -3.570312 22.96875 -2.019531 22.96875 0.09375 C 22.96875 1.59375 22.484375 2.945312 21.515625 4.15625 C 20.554688 5.363281 19.070312 6.328125 17.0625 7.046875 C 15.0625 7.773438 12.5625 8.140625 9.5625 8.140625 C 6.59375 8.140625 4.253906 7.804688 2.546875 7.140625 C 0.847656 6.472656 0 5.535156 0 4.328125 C 0 3.492188 0.414062 2.726562 1.25 2.03125 C 2.09375 1.34375 3.363281 0.796875 5.0625 0.390625 L 5.5 1.078125 C 4.71875 2.035156 4.328125 2.957031 4.328125 3.84375 C 4.328125 4.96875 4.835938 5.835938 5.859375 6.453125 C 6.878906 7.078125 8.316406 7.390625 10.171875 7.390625 C 12.066406 7.390625 13.523438 7.007812 14.546875 6.25 C 15.578125 5.488281 16.09375 4.472656 16.09375 3.203125 C 16.09375 2.304688 15.753906 1.59375 15.078125 1.0625 C 14.398438 0.53125 13.210938 0.265625 11.515625 0.265625 L 9.171875 0.265625 C 7.210938 0.265625 5.710938 -0.109375 4.671875 -0.859375 C 3.628906 -1.609375 3.109375 -2.617188 3.109375 -3.890625 C 3.109375 -5.046875 3.519531 -6.054688 4.34375 -6.921875 C 5.164062 -7.785156 6.359375 -8.59375 7.921875 -9.34375 C 5.722656 -9.632812 3.992188 -10.347656 2.734375 -11.484375 C 1.484375 -12.628906 0.859375 -14.179688 0.859375 -16.140625 C 0.859375 -18.421875 1.703125 -20.144531 3.390625 -21.3125 C 5.078125 -22.476562 7.335938 -23.0625 10.171875 -23.0625 C 13.191406 -23.0625 15.523438 -22.425781 17.171875 -21.15625 C 17.722656 -21.90625 18.382812 -22.492188 19.15625 -22.921875 C 19.9375 -23.359375 20.757812 -23.578125 21.625 -23.578125 C 22.582031 -23.578125 23.320312 -23.3125 23.84375 -22.78125 C 24.363281 -22.25 24.625 -21.5625 24.625 -20.71875 C 24.625 -19.914062 24.40625 -19.273438 23.96875 -18.796875 C 23.53125 -18.316406 22.984375 -18.078125 22.328125 -18.078125 Z M 10.171875 -10 C 10.742188 -10 11.179688 -10.46875 11.484375 -11.40625 C 11.785156 -12.34375 11.9375 -13.921875 11.9375 -16.140625 C 11.9375 -18.359375 11.785156 -19.9375 11.484375 -20.875 C 11.179688 -21.8125 10.742188 -22.28125 10.171875 -22.28125 C 9.585938 -22.28125 9.144531 -21.8125 8.84375 -20.875 C 8.539062 -19.9375 8.390625 -18.359375 8.390625 -16.140625 C 8.390625 -13.921875 8.539062 -12.34375 8.84375 -11.40625 C 9.144531 -10.46875 9.585938 -10 10.171875 -10 Z M 10.171875 -10 "/></g></g></g><g fill="#000000" fill-opacity="1"><g transform="translate(248.917173, 294.932733)"><g><path d="M 6.53125 0.296875 C 4.6875 0.296875 3.296875 -0.195312 2.359375 -1.1875 C 1.421875 -2.1875 0.953125 -3.4375 0.953125 -4.9375 C 0.953125 -6.226562 1.289062 -7.300781 1.96875 -8.15625 C 2.644531 -9.007812 3.441406 -9.664062 4.359375 -10.125 C 5.285156 -10.582031 6.484375 -11.054688 7.953125 -11.546875 C 9.515625 -12.066406 10.65625 -12.539062 11.375 -12.96875 C 12.09375 -13.40625 12.453125 -14.015625 12.453125 -14.796875 L 12.453125 -18.640625 C 12.453125 -19.566406 12.222656 -20.390625 11.765625 -21.109375 C 11.304688 -21.828125 10.515625 -22.1875 9.390625 -22.1875 C 8.492188 -22.1875 7.6875 -21.941406 6.96875 -21.453125 C 7.945312 -21.109375 8.671875 -20.597656 9.140625 -19.921875 C 9.617188 -19.242188 9.859375 -18.488281 9.859375 -17.65625 C 9.859375 -16.53125 9.460938 -15.628906 8.671875 -14.953125 C 7.878906 -14.273438 6.921875 -13.9375 5.796875 -13.9375 C 4.671875 -13.9375 3.78125 -14.285156 3.125 -14.984375 C 2.476562 -15.691406 2.15625 -16.597656 2.15625 -17.703125 C 2.15625 -18.566406 2.375 -19.3125 2.8125 -19.9375 C 3.25 -20.570312 3.925781 -21.148438 4.84375 -21.671875 C 6.457031 -22.597656 8.765625 -23.0625 11.765625 -23.0625 C 13.347656 -23.0625 14.71875 -22.910156 15.875 -22.609375 C 17.03125 -22.304688 18.015625 -21.734375 18.828125 -20.890625 C 19.398438 -20.285156 19.78125 -19.53125 19.96875 -18.625 C 20.15625 -17.71875 20.25 -16.457031 20.25 -14.84375 L 20.25 -3.25 C 20.25 -2.519531 20.296875 -2.023438 20.390625 -1.765625 C 20.492188 -1.515625 20.675781 -1.390625 20.9375 -1.390625 C 21.144531 -1.390625 21.363281 -1.453125 21.59375 -1.578125 C 21.820312 -1.710938 22.035156 -1.863281 22.234375 -2.03125 L 22.671875 -1.296875 C 21.429688 -0.234375 19.65625 0.296875 17.34375 0.296875 C 15.613281 0.296875 14.398438 0.00390625 13.703125 -0.578125 C 13.015625 -1.171875 12.644531 -1.972656 12.59375 -2.984375 C 11.238281 -0.796875 9.21875 0.296875 6.53125 0.296875 Z M 10.859375 -3.15625 C 11.460938 -3.15625 11.992188 -3.398438 12.453125 -3.890625 L 12.453125 -13.015625 C 12.203125 -12.585938 11.726562 -12.023438 11.03125 -11.328125 C 10.25 -10.578125 9.65625 -9.847656 9.25 -9.140625 C 8.851562 -8.441406 8.65625 -7.488281 8.65625 -6.28125 C 8.65625 -4.195312 9.390625 -3.15625 10.859375 -3.15625 Z M 10.859375 -3.15625 "/></g></g></g><g fill="#000000" fill-opacity="1"><g transform="translate(271.88496, 294.932733)"><g><path d="M 16.703125 -23.0625 C 18.117188 -23.0625 19.132812 -22.628906 19.75 -21.765625 C 20.375 -20.898438 20.6875 -19.875 20.6875 -18.6875 C 20.6875 -17.394531 20.316406 -16.363281 19.578125 -15.59375 C 18.835938 -14.832031 17.878906 -14.453125 16.703125 -14.453125 C 15.460938 -14.453125 14.507812 -14.734375 13.84375 -15.296875 C 13.175781 -15.859375 12.84375 -16.613281 12.84375 -17.5625 C 12.84375 -19.269531 13.582031 -20.613281 15.0625 -21.59375 C 14.539062 -21.59375 14.078125 -21.488281 13.671875 -21.28125 C 12.953125 -20.96875 12.347656 -20.457031 11.859375 -19.75 C 11.367188 -19.039062 11.125 -18.269531 11.125 -17.4375 L 11.125 -4.453125 C 11.125 -3.097656 11.40625 -2.164062 11.96875 -1.65625 C 12.53125 -1.15625 13.488281 -0.90625 14.84375 -0.90625 L 14.84375 0 C 14.46875 0 14.148438 -0.015625 13.890625 -0.046875 C 10.859375 -0.128906 8.835938 -0.171875 7.828125 -0.171875 C 6.929688 -0.171875 4.925781 -0.128906 1.8125 -0.046875 C 1.582031 -0.015625 1.28125 0 0.90625 0 L 0.90625 -0.90625 C 1.800781 -0.90625 2.425781 -1.128906 2.78125 -1.578125 C 3.144531 -2.023438 3.328125 -2.84375 3.328125 -4.03125 L 3.328125 -17.734375 C 3.328125 -19.066406 3.144531 -20.035156 2.78125 -20.640625 C 2.425781 -21.242188 1.800781 -21.546875 0.90625 -21.546875 L 0.90625 -22.453125 C 1.832031 -22.367188 2.726562 -22.328125 3.59375 -22.328125 C 6.59375 -22.328125 9.101562 -22.53125 11.125 -22.9375 L 11.125 -19.8125 C 12.21875 -21.976562 14.078125 -23.0625 16.703125 -23.0625 Z M 16.703125 -23.0625 "/></g></g></g><g fill="#000000" fill-opacity="1"><g transform="translate(292.690042, 294.932733)"><g><path d="M 31.328125 -22.28125 C 32.972656 -22.28125 34.082031 -22.335938 34.65625 -22.453125 L 34.65625 -21.546875 C 34.050781 -21.316406 33.492188 -20.890625 32.984375 -20.265625 C 32.484375 -19.648438 32.015625 -18.675781 31.578125 -17.34375 L 26.171875 0 C 25.710938 -0.0625 25.019531 -0.09375 24.09375 -0.09375 C 23.144531 -0.09375 22.441406 -0.0625 21.984375 0 L 16.828125 -14.96875 L 12.890625 0 C 12.429688 -0.0625 11.738281 -0.09375 10.8125 -0.09375 C 9.863281 -0.09375 9.160156 -0.0625 8.703125 0 L 2.03125 -19.125 C 1.6875 -20.132812 1.296875 -20.789062 0.859375 -21.09375 C 0.429688 -21.394531 -0.0078125 -21.546875 -0.46875 -21.546875 L -0.46875 -22.453125 C 1.800781 -22.273438 4.363281 -22.1875 7.21875 -22.1875 C 8.664062 -22.1875 10.539062 -22.273438 12.84375 -22.453125 L 12.84375 -21.546875 C 11.957031 -21.546875 11.316406 -21.472656 10.921875 -21.328125 C 10.535156 -21.179688 10.34375 -20.894531 10.34375 -20.46875 C 10.34375 -20.375 10.367188 -20.1875 10.421875 -19.90625 L 14.015625 -7.921875 L 17.734375 -22.40625 L 17.78125 -22.40625 C 18.707031 -22.351562 19.398438 -22.328125 19.859375 -22.328125 C 20.429688 -22.328125 21.269531 -22.351562 22.375 -22.40625 L 27.296875 -6.578125 L 29.15625 -12.765625 C 29.625 -14.347656 29.859375 -15.734375 29.859375 -16.921875 C 29.859375 -18.359375 29.539062 -19.46875 28.90625 -20.25 C 28.269531 -21.03125 27.414062 -21.460938 26.34375 -21.546875 L 26.34375 -22.453125 C 27.414062 -22.335938 29.078125 -22.28125 31.328125 -22.28125 Z M 31.328125 -22.28125 "/></g></g></g><g fill="#000000" fill-opacity="1"><g transform="translate(327.206611, 294.932733)"><g><path d="M 6.53125 0.296875 C 4.6875 0.296875 3.296875 -0.195312 2.359375 -1.1875 C 1.421875 -2.1875 0.953125 -3.4375 0.953125 -4.9375 C 0.953125 -6.226562 1.289062 -7.300781 1.96875 -8.15625 C 2.644531 -9.007812 3.441406 -9.664062 4.359375 -10.125 C 5.285156 -10.582031 6.484375 -11.054688 7.953125 -11.546875 C 9.515625 -12.066406 10.65625 -12.539062 11.375 -12.96875 C 12.09375 -13.40625 12.453125 -14.015625 12.453125 -14.796875 L 12.453125 -18.640625 C 12.453125 -19.566406 12.222656 -20.390625 11.765625 -21.109375 C 11.304688 -21.828125 10.515625 -22.1875 9.390625 -22.1875 C 8.492188 -22.1875 7.6875 -21.941406 6.96875 -21.453125 C 7.945312 -21.109375 8.671875 -20.597656 9.140625 -19.921875 C 9.617188 -19.242188 9.859375 -18.488281 9.859375 -17.65625 C 9.859375 -16.53125 9.460938 -15.628906 8.671875 -14.953125 C 7.878906 -14.273438 6.921875 -13.9375 5.796875 -13.9375 C 4.671875 -13.9375 3.78125 -14.285156 3.125 -14.984375 C 2.476562 -15.691406 2.15625 -16.597656 2.15625 -17.703125 C 2.15625 -18.566406 2.375 -19.3125 2.8125 -19.9375 C 3.25 -20.570312 3.925781 -21.148438 4.84375 -21.671875 C 6.457031 -22.597656 8.765625 -23.0625 11.765625 -23.0625 C 13.347656 -23.0625 14.71875 -22.910156 15.875 -22.609375 C 17.03125 -22.304688 18.015625 -21.734375 18.828125 -20.890625 C 19.398438 -20.285156 19.78125 -19.53125 19.96875 -18.625 C 20.15625 -17.71875 20.25 -16.457031 20.25 -14.84375 L 20.25 -3.25 C 20.25 -2.519531 20.296875 -2.023438 20.390625 -1.765625 C 20.492188 -1.515625 20.675781 -1.390625 20.9375 -1.390625 C 21.144531 -1.390625 21.363281 -1.453125 21.59375 -1.578125 C 21.820312 -1.710938 22.035156 -1.863281 22.234375 -2.03125 L 22.671875 -1.296875 C 21.429688 -0.234375 19.65625 0.296875 17.34375 0.296875 C 15.613281 0.296875 14.398438 0.00390625 13.703125 -0.578125 C 13.015625 -1.171875 12.644531 -1.972656 12.59375 -2.984375 C 11.238281 -0.796875 9.21875 0.296875 6.53125 0.296875 Z M 10.859375 -3.15625 C 11.460938 -3.15625 11.992188 -3.398438 12.453125 -3.890625 L 12.453125 -13.015625 C 12.203125 -12.585938 11.726562 -12.023438 11.03125 -11.328125 C 10.25 -10.578125 9.65625 -9.847656 9.25 -9.140625 C 8.851562 -8.441406 8.65625 -7.488281 8.65625 -6.28125 C 8.65625 -4.195312 9.390625 -3.15625 10.859375 -3.15625 Z M 10.859375 -3.15625 "/></g></g></g><g fill="#000000" fill-opacity="1"><g transform="translate(350.174398, 294.932733)"><g><path d="M 10.984375 -4.03125 C 10.984375 -2.84375 11.164062 -2.023438 11.53125 -1.578125 C 11.894531 -1.128906 12.519531 -0.90625 13.40625 -0.90625 L 13.40625 0 C 10.289062 -0.113281 8.242188 -0.171875 7.265625 -0.171875 C 6.285156 -0.171875 4.125 -0.113281 0.78125 0 L 0.78125 -0.90625 C 1.675781 -0.90625 2.300781 -1.128906 2.65625 -1.578125 C 3.019531 -2.023438 3.203125 -2.84375 3.203125 -4.03125 L 3.203125 -28.640625 C 3.203125 -29.960938 3.019531 -30.925781 2.65625 -31.53125 C 2.300781 -32.144531 1.675781 -32.453125 0.78125 -32.453125 L 0.78125 -33.359375 C 1.675781 -33.273438 2.570312 -33.234375 3.46875 -33.234375 C 6.457031 -33.234375 8.960938 -33.429688 10.984375 -33.828125 Z M 10.984375 -4.03125 "/></g></g></g></svg>