<svg xmlns="http://www.w3.org/2000/svg" xmlns:xlink="http://www.w3.org/1999/xlink" width="500" zoomAndPan="magnify" viewBox="0 0 375 374.999991" height="500" preserveAspectRatio="xMidYMid meet" version="1.0"><defs><g/></defs><g fill="#f4f4f4" fill-opacity="1"><g transform="translate(9.667992, 262.433055)"><g><path d="M 17.792969 0 L 62.625 0 L 62.625 -4.625 C 46.96875 -8.894531 38.429688 -18.859375 38.429688 -59.425781 L 38.429688 -217.414062 L 129.523438 -67.609375 L 136.285156 -67.609375 L 226.664062 -220.261719 L 226.664062 -45.191406 C 226.664062 -16.011719 223.105469 -7.828125 212.433594 -4.625 L 212.433594 0 L 270.078125 0 L 270.078125 -4.625 C 259.046875 -7.828125 255.84375 -16.011719 255.84375 -45.191406 L 255.84375 -189.660156 C 255.84375 -230.222656 263.316406 -240.1875 277.550781 -244.457031 L 277.550781 -249.082031 L 237.339844 -249.082031 L 146.246094 -95.71875 L 53.375 -249.082031 L 10.320312 -249.082031 L 10.320312 -244.457031 C 24.550781 -240.1875 32.023438 -230.222656 32.023438 -189.660156 L 32.023438 -45.191406 C 32.023438 -16.011719 28.824219 -7.828125 17.792969 -4.625 Z M 17.792969 0 "/></g></g></g><g fill="#f4f4f4" fill-opacity="1"><g transform="translate(166.302684, 360.165361)"><g><path d="M 108.84375 3.820312 C 153.910156 3.820312 198.210938 -25.207031 198.210938 -72.945312 C 198.210938 -116.101562 158.492188 -132.90625 116.101562 -149.710938 C 83.640625 -163.078125 44.300781 -177.589844 44.300781 -213.488281 C 44.300781 -245.953125 70.652344 -263.902344 101.589844 -263.902344 C 145.125 -263.902344 171.859375 -240.222656 185.992188 -206.996094 L 189.808594 -208.140625 L 188.28125 -252.445312 C 173.386719 -260.464844 148.5625 -270.011719 113.808594 -270.011719 C 57.667969 -270.011719 20.625 -241.75 20.625 -197.066406 C 20.625 -156.585938 49.265625 -140.542969 94.332031 -122.59375 C 126.414062 -109.609375 173.386719 -92.039062 173.386719 -53.851562 C 173.386719 -22.914062 147.035156 -3.054688 116.484375 -3.054688 C 63.398438 -3.054688 34.371094 -37.046875 19.476562 -77.144531 L 15.277344 -76.382812 L 17.1875 -23.296875 C 35.136719 -10.3125 68.746094 3.820312 108.84375 3.820312 Z M 108.84375 3.820312 "/></g></g></g></svg>