<svg xmlns="http://www.w3.org/2000/svg" xmlns:xlink="http://www.w3.org/1999/xlink" width="500" zoomAndPan="magnify" viewBox="0 0 375 374.999991" height="500" preserveAspectRatio="xMidYMid meet" version="1.0"><defs><g/></defs><g fill="#2b2b2b" fill-opacity="1"><g transform="translate(9.680139, 262.624574)"><g><path d="M 17.792969 0 L 62.625 0 L 62.625 -4.625 C 46.96875 -8.894531 38.429688 -18.859375 38.429688 -59.421875 L 38.429688 -217.414062 L 129.523438 -67.609375 L 136.28125 -67.609375 L 226.664062 -220.257812 L 226.664062 -45.191406 C 226.664062 -16.011719 223.105469 -7.828125 212.429688 -4.625 L 212.429688 0 L 270.074219 0 L 270.074219 -4.625 C 259.042969 -7.828125 255.839844 -16.011719 255.839844 -45.191406 L 255.839844 -189.65625 C 255.839844 -230.222656 263.3125 -240.183594 277.546875 -244.457031 L 277.546875 -249.082031 L 237.339844 -249.082031 L 146.246094 -95.71875 L 53.375 -249.082031 L 10.320312 -249.082031 L 10.320312 -244.457031 C 24.550781 -240.183594 32.023438 -230.222656 32.023438 -189.65625 L 32.023438 -45.191406 C 32.023438 -16.011719 28.820312 -7.828125 17.792969 -4.625 Z M 17.792969 0 "/></g></g></g><g fill="#2b2b2b" fill-opacity="1"><g transform="translate(166.309633, 360.255131)"><g><path d="M 108.84375 3.820312 C 153.910156 3.820312 198.210938 -25.207031 198.210938 -72.945312 C 198.210938 -116.101562 158.492188 -132.902344 116.101562 -149.707031 C 83.636719 -163.074219 44.300781 -177.585938 44.300781 -213.484375 C 44.300781 -245.949219 70.652344 -263.898438 101.585938 -263.898438 C 145.125 -263.898438 171.859375 -240.21875 185.988281 -206.992188 L 189.808594 -208.140625 L 188.28125 -252.441406 C 173.386719 -260.460938 148.5625 -270.007812 113.808594 -270.007812 C 57.667969 -270.007812 20.621094 -241.746094 20.621094 -197.0625 C 20.621094 -156.582031 49.265625 -140.542969 94.332031 -122.59375 C 126.410156 -109.609375 173.386719 -92.039062 173.386719 -53.847656 C 173.386719 -22.914062 147.035156 -3.054688 116.480469 -3.054688 C 63.398438 -3.054688 34.371094 -37.046875 19.476562 -77.144531 L 15.277344 -76.382812 L 17.1875 -23.296875 C 35.136719 -10.3125 68.742188 3.820312 108.84375 3.820312 Z M 108.84375 3.820312 "/></g></g></g></svg>