<svg xmlns="http://www.w3.org/2000/svg" xmlns:xlink="http://www.w3.org/1999/xlink" width="500" zoomAndPan="magnify" viewBox="0 0 375 374.999991" height="500" preserveAspectRatio="xMidYMid meet" version="1.0"><defs><g/></defs><g fill="#000000" fill-opacity="1"><g transform="translate(0.0000045, 245.272302)"><g><path d="M 35.546875 -30.671875 C 35.546875 -26.773438 36.316406 -22.960938 37.859375 -19.234375 C 39.398438 -15.503906 41.507812 -12.21875 44.1875 -9.375 C 46.863281 -6.53125 49.988281 -4.253906 53.5625 -2.546875 C 57.132812 -0.847656 60.867188 0 64.765625 0 L 6.09375 0 C 9.988281 0 13.71875 -0.847656 17.28125 -2.546875 C 20.851562 -4.253906 23.976562 -6.53125 26.65625 -9.375 C 29.332031 -12.21875 31.484375 -15.503906 33.109375 -19.234375 C 34.734375 -22.960938 35.546875 -26.773438 35.546875 -30.671875 Z M 112.984375 -79.125 C 116.066406 -79.125 118.175781 -80.671875 119.3125 -83.765625 L 116.875 -76.703125 L 90.09375 0 L 47.71875 -122.46875 C 46.582031 -125.394531 44.472656 -126.859375 41.390625 -126.859375 C 39.609375 -126.859375 38.066406 -126.207031 36.765625 -124.90625 C 35.460938 -123.601562 34.8125 -122.0625 34.8125 -120.28125 L 34.8125 -154.375 C 34.8125 -158.425781 33.269531 -162.113281 30.1875 -165.4375 C 27.101562 -168.769531 23.535156 -170.4375 19.484375 -170.4375 L 76.453125 -170.4375 L 102.5 -95.6875 L 106.640625 -83.765625 C 106.972656 -82.460938 107.742188 -81.363281 108.953125 -80.46875 C 110.171875 -79.570312 111.515625 -79.125 112.984375 -79.125 Z M 202.09375 -170.4375 C 198.03125 -170.4375 194.578125 -168.769531 191.734375 -165.4375 C 188.898438 -162.113281 187.484375 -158.425781 187.484375 -154.375 L 187.484375 -16.0625 C 187.484375 -12.007812 188.898438 -8.316406 191.734375 -4.984375 C 194.578125 -1.660156 198.03125 0 202.09375 0 L 129.78125 0 C 134 0 137.523438 -1.660156 140.359375 -4.984375 C 143.203125 -8.316406 144.625 -12.007812 144.625 -16.0625 L 144.625 -121.5 C 144.625 -123.28125 143.929688 -124.859375 142.546875 -126.234375 C 141.171875 -127.617188 139.59375 -128.3125 137.8125 -128.3125 C 134.726562 -128.3125 132.617188 -126.769531 131.484375 -123.6875 L 135.625 -135.859375 L 147.3125 -170.4375 Z M 202.09375 -170.4375 "/></g></g></g><g fill="#000000" fill-opacity="1"><g transform="translate(208.15997, 245.272302)"><g><path d="M 38.953125 -27.03125 C 38.953125 -23.289062 39.640625 -19.753906 41.015625 -16.421875 C 42.398438 -13.097656 44.3125 -10.21875 46.75 -7.78125 C 49.1875 -5.351562 52.023438 -3.445312 55.265625 -2.0625 C 58.515625 -0.6875 62.003906 0 65.734375 0 L 6.09375 0 C 9.65625 -0.488281 13.097656 -1.625 16.421875 -3.40625 C 19.753906 -5.195312 22.878906 -7.429688 25.796875 -10.109375 C 28.722656 -12.785156 31.320312 -15.742188 33.59375 -18.984375 C 35.875 -22.234375 37.660156 -25.5625 38.953125 -28.96875 Z M 85.703125 0 C 89.109375 0 92.03125 -1.414062 94.46875 -4.25 C 96.90625 -7.09375 98.125 -10.300781 98.125 -13.875 C 98.125 -14.53125 98.125 -15.179688 98.125 -15.828125 C 98.125 -16.472656 97.960938 -17.125 97.640625 -17.78125 L 90.578125 -38.234375 L 90.09375 -39.6875 L 72.796875 -89.609375 C 71.660156 -92.359375 69.632812 -93.734375 66.71875 -93.734375 C 63.957031 -93.734375 62.007812 -92.359375 60.875 -89.609375 L 90.09375 -170.4375 L 117.109375 -92.765625 C 118.253906 -89.515625 119.554688 -85.65625 121.015625 -81.1875 C 122.472656 -76.726562 123.769531 -72.878906 124.90625 -69.640625 L 144.875 -12.65625 C 146.007812 -9.414062 147.992188 -6.492188 150.828125 -3.890625 C 153.671875 -1.296875 156.960938 0 160.703125 0 Z M 85.703125 0 "/></g></g></g><g fill="#000000" fill-opacity="1"><g transform="translate(8.835174, 284.736778)"><g><path d="M 40.953125 -30.0625 C 40.015625 -30.007812 39.332031 -29.894531 38.90625 -29.71875 C 38.488281 -29.539062 38.207031 -29.203125 38.0625 -28.703125 C 37.914062 -28.210938 37.84375 -27.414062 37.84375 -26.3125 L 37.84375 -4.625 C 37.84375 -3.519531 37.921875 -2.71875 38.078125 -2.21875 C 38.242188 -1.726562 38.53125 -1.394531 38.9375 -1.21875 C 39.34375 -1.050781 40.015625 -0.9375 40.953125 -0.875 L 40.953125 0 C 39.171875 -0.0820312 36.59375 -0.125 33.21875 -0.125 C 29.6875 -0.125 27.09375 -0.0820312 25.4375 0 L 25.4375 -0.875 C 26.488281 -0.9375 27.253906 -1.050781 27.734375 -1.21875 C 28.210938 -1.394531 28.535156 -1.726562 28.703125 -2.21875 C 28.878906 -2.71875 28.96875 -3.519531 28.96875 -4.625 L 28.96875 -26.96875 L 18.4375 -0.046875 L 17.75 -0.046875 L 5.421875 -28.09375 L 5.421875 -8.5625 C 5.421875 -6.40625 5.503906 -4.851562 5.671875 -3.90625 C 5.847656 -2.957031 6.234375 -2.265625 6.828125 -1.828125 C 7.429688 -1.398438 8.429688 -1.082031 9.828125 -0.875 L 9.828125 0 C 8.640625 -0.0820312 7.007812 -0.125 4.9375 -0.125 C 3.394531 -0.125 2.1875 -0.0820312 1.3125 0 L 1.3125 -0.875 C 2.21875 -1.082031 2.890625 -1.394531 3.328125 -1.8125 C 3.765625 -2.238281 4.050781 -2.882812 4.1875 -3.75 C 4.332031 -4.625 4.40625 -5.9375 4.40625 -7.6875 L 4.40625 -26.3125 C 4.40625 -27.414062 4.328125 -28.210938 4.171875 -28.703125 C 4.015625 -29.203125 3.726562 -29.539062 3.3125 -29.71875 C 2.90625 -29.894531 2.238281 -30.007812 1.3125 -30.0625 L 1.3125 -30.9375 C 2.1875 -30.851562 3.394531 -30.8125 4.9375 -30.8125 C 8.4375 -30.8125 11.453125 -30.851562 13.984375 -30.9375 L 22.25 -12.375 L 29.40625 -30.8125 L 33.21875 -30.8125 C 36.59375 -30.8125 39.171875 -30.851562 40.953125 -30.9375 Z M 40.953125 -30.0625 "/></g></g></g><g fill="#000000" fill-opacity="1"><g transform="translate(50.996339, 284.736778)"><g><path d="M 6.59375 0.3125 C 4.726562 0.3125 3.320312 -0.1875 2.375 -1.1875 C 1.4375 -2.195312 0.96875 -3.460938 0.96875 -4.984375 C 0.96875 -6.296875 1.304688 -7.378906 1.984375 -8.234375 C 2.671875 -9.097656 3.476562 -9.757812 4.40625 -10.21875 C 5.34375 -10.6875 6.554688 -11.171875 8.046875 -11.671875 C 9.617188 -12.191406 10.769531 -12.671875 11.5 -13.109375 C 12.226562 -13.546875 12.59375 -14.160156 12.59375 -14.953125 L 12.59375 -18.84375 C 12.59375 -19.769531 12.359375 -20.597656 11.890625 -21.328125 C 11.421875 -22.054688 10.617188 -22.421875 9.484375 -22.421875 C 8.578125 -22.421875 7.757812 -22.171875 7.03125 -21.671875 C 8.019531 -21.328125 8.753906 -20.8125 9.234375 -20.125 C 9.722656 -19.4375 9.96875 -18.671875 9.96875 -17.828125 C 9.96875 -16.691406 9.566406 -15.78125 8.765625 -15.09375 C 7.960938 -14.414062 6.992188 -14.078125 5.859375 -14.078125 C 4.722656 -14.078125 3.828125 -14.429688 3.171875 -15.140625 C 2.515625 -15.859375 2.1875 -16.769531 2.1875 -17.875 C 2.1875 -18.75 2.40625 -19.503906 2.84375 -20.140625 C 3.28125 -20.785156 3.960938 -21.367188 4.890625 -21.890625 C 6.523438 -22.828125 8.859375 -23.296875 11.890625 -23.296875 C 13.492188 -23.296875 14.875 -23.140625 16.03125 -22.828125 C 17.195312 -22.523438 18.191406 -21.953125 19.015625 -21.109375 C 19.597656 -20.492188 19.984375 -19.726562 20.171875 -18.8125 C 20.359375 -17.894531 20.453125 -16.617188 20.453125 -14.984375 L 20.453125 -3.28125 C 20.453125 -2.550781 20.503906 -2.054688 20.609375 -1.796875 C 20.710938 -1.535156 20.894531 -1.40625 21.15625 -1.40625 C 21.351562 -1.40625 21.566406 -1.46875 21.796875 -1.59375 C 22.035156 -1.726562 22.257812 -1.878906 22.46875 -2.046875 L 22.90625 -1.3125 C 21.644531 -0.226562 19.851562 0.3125 17.53125 0.3125 C 15.78125 0.3125 14.554688 0.015625 13.859375 -0.578125 C 13.160156 -1.179688 12.78125 -1.992188 12.71875 -3.015625 C 11.34375 -0.796875 9.300781 0.3125 6.59375 0.3125 Z M 10.96875 -3.1875 C 11.582031 -3.1875 12.125 -3.4375 12.59375 -3.9375 L 12.59375 -13.15625 C 12.320312 -12.71875 11.835938 -12.148438 11.140625 -11.453125 C 10.359375 -10.691406 9.757812 -9.953125 9.34375 -9.234375 C 8.9375 -8.523438 8.734375 -7.5625 8.734375 -6.34375 C 8.734375 -4.238281 9.476562 -3.1875 10.96875 -3.1875 Z M 10.96875 -3.1875 "/></g></g></g><g fill="#000000" fill-opacity="1"><g transform="translate(74.195908, 284.736778)"><g><path d="M 6.59375 0.3125 C 4.726562 0.3125 3.320312 -0.1875 2.375 -1.1875 C 1.4375 -2.195312 0.96875 -3.460938 0.96875 -4.984375 C 0.96875 -6.296875 1.304688 -7.378906 1.984375 -8.234375 C 2.671875 -9.097656 3.476562 -9.757812 4.40625 -10.21875 C 5.34375 -10.6875 6.554688 -11.171875 8.046875 -11.671875 C 9.617188 -12.191406 10.769531 -12.671875 11.5 -13.109375 C 12.226562 -13.546875 12.59375 -14.160156 12.59375 -14.953125 L 12.59375 -18.84375 C 12.59375 -19.769531 12.359375 -20.597656 11.890625 -21.328125 C 11.421875 -22.054688 10.617188 -22.421875 9.484375 -22.421875 C 8.578125 -22.421875 7.757812 -22.171875 7.03125 -21.671875 C 8.019531 -21.328125 8.753906 -20.8125 9.234375 -20.125 C 9.722656 -19.4375 9.96875 -18.671875 9.96875 -17.828125 C 9.96875 -16.691406 9.566406 -15.78125 8.765625 -15.09375 C 7.960938 -14.414062 6.992188 -14.078125 5.859375 -14.078125 C 4.722656 -14.078125 3.828125 -14.429688 3.171875 -15.140625 C 2.515625 -15.859375 2.1875 -16.769531 2.1875 -17.875 C 2.1875 -18.75 2.40625 -19.503906 2.84375 -20.140625 C 3.28125 -20.785156 3.960938 -21.367188 4.890625 -21.890625 C 6.523438 -22.828125 8.859375 -23.296875 11.890625 -23.296875 C 13.492188 -23.296875 14.875 -23.140625 16.03125 -22.828125 C 17.195312 -22.523438 18.191406 -21.953125 19.015625 -21.109375 C 19.597656 -20.492188 19.984375 -19.726562 20.171875 -18.8125 C 20.359375 -17.894531 20.453125 -16.617188 20.453125 -14.984375 L 20.453125 -3.28125 C 20.453125 -2.550781 20.503906 -2.054688 20.609375 -1.796875 C 20.710938 -1.535156 20.894531 -1.40625 21.15625 -1.40625 C 21.351562 -1.40625 21.566406 -1.46875 21.796875 -1.59375 C 22.035156 -1.726562 22.257812 -1.878906 22.46875 -2.046875 L 22.90625 -1.3125 C 21.644531 -0.226562 19.851562 0.3125 17.53125 0.3125 C 15.78125 0.3125 14.554688 0.015625 13.859375 -0.578125 C 13.160156 -1.179688 12.78125 -1.992188 12.71875 -3.015625 C 11.34375 -0.796875 9.300781 0.3125 6.59375 0.3125 Z M 10.96875 -3.1875 C 11.582031 -3.1875 12.125 -3.4375 12.59375 -3.9375 L 12.59375 -13.15625 C 12.320312 -12.71875 11.835938 -12.148438 11.140625 -11.453125 C 10.359375 -10.691406 9.757812 -9.953125 9.34375 -9.234375 C 8.9375 -8.523438 8.734375 -7.5625 8.734375 -6.34375 C 8.734375 -4.238281 9.476562 -3.1875 10.96875 -3.1875 Z M 10.96875 -3.1875 "/></g></g></g><g fill="#000000" fill-opacity="1"><g transform="translate(97.395478, 284.736778)"><g><path d="M 18.1875 -23.296875 C 20.507812 -23.296875 22.15625 -22.710938 23.125 -21.546875 C 23.5625 -21.023438 23.878906 -20.316406 24.078125 -19.421875 C 24.285156 -18.535156 24.390625 -17.363281 24.390625 -15.90625 L 24.390625 -4.0625 C 24.390625 -2.863281 24.570312 -2.039062 24.9375 -1.59375 C 25.300781 -1.144531 25.929688 -0.921875 26.828125 -0.921875 L 26.828125 0 C 23.679688 -0.113281 21.644531 -0.171875 20.71875 -0.171875 C 19.726562 -0.171875 17.660156 -0.113281 14.515625 0 L 14.515625 -0.921875 C 15.265625 -0.921875 15.785156 -1.144531 16.078125 -1.59375 C 16.367188 -2.039062 16.515625 -2.863281 16.515625 -4.0625 L 16.515625 -18.265625 C 16.515625 -19.203125 16.347656 -19.894531 16.015625 -20.34375 C 15.679688 -20.789062 15.132812 -21.015625 14.375 -21.015625 C 13.53125 -21.015625 12.796875 -20.71875 12.171875 -20.125 C 11.546875 -19.53125 11.234375 -18.78125 11.234375 -17.875 L 11.234375 -4.0625 C 11.234375 -2.863281 11.378906 -2.039062 11.671875 -1.59375 C 11.960938 -1.144531 12.484375 -0.921875 13.234375 -0.921875 L 13.234375 0 C 10.328125 -0.113281 8.40625 -0.171875 7.46875 -0.171875 C 6.476562 -0.171875 4.296875 -0.113281 0.921875 0 L 0.921875 -0.921875 C 1.816406 -0.921875 2.445312 -1.144531 2.8125 -1.59375 C 3.175781 -2.039062 3.359375 -2.863281 3.359375 -4.0625 L 3.359375 -17.921875 C 3.359375 -19.253906 3.175781 -20.226562 2.8125 -20.84375 C 2.445312 -21.457031 1.816406 -21.765625 0.921875 -21.765625 L 0.921875 -22.6875 C 1.847656 -22.59375 2.75 -22.546875 3.625 -22.546875 C 6.65625 -22.546875 9.191406 -22.75 11.234375 -23.15625 L 11.234375 -20.015625 C 12.546875 -22.203125 14.863281 -23.296875 18.1875 -23.296875 Z M 18.1875 -23.296875 "/></g></g></g><g fill="#000000" fill-opacity="1"><g transform="translate(124.701931, 284.736778)"><g><path d="M 10.09375 -23.296875 C 11.226562 -23.296875 12.296875 -23.171875 13.296875 -22.921875 C 14.304688 -22.671875 15.078125 -22.398438 15.609375 -22.109375 C 15.921875 -21.929688 16.179688 -21.84375 16.390625 -21.84375 C 17.003906 -21.84375 17.367188 -22.3125 17.484375 -23.25 L 18.359375 -23.25 C 18.242188 -21.738281 18.1875 -19.117188 18.1875 -15.390625 L 17.3125 -15.390625 C 17.070312 -17.304688 16.519531 -18.925781 15.65625 -20.25 C 14.800781 -21.582031 13.5625 -22.25 11.9375 -22.25 C 11.207031 -22.25 10.59375 -22.03125 10.09375 -21.59375 C 9.601562 -21.15625 9.359375 -20.554688 9.359375 -19.796875 C 9.359375 -18.835938 9.675781 -17.984375 10.3125 -17.234375 C 10.957031 -16.492188 11.960938 -15.585938 13.328125 -14.515625 C 13.390625 -14.484375 13.8125 -14.144531 14.59375 -13.5 C 16.226562 -12.164062 17.421875 -10.976562 18.171875 -9.9375 C 18.929688 -8.90625 19.3125 -7.632812 19.3125 -6.125 C 19.3125 -4.84375 18.914062 -3.679688 18.125 -2.640625 C 17.34375 -1.609375 16.273438 -0.804688 14.921875 -0.234375 C 13.566406 0.328125 12.085938 0.609375 10.484375 0.609375 C 8.648438 0.609375 7.148438 0.242188 5.984375 -0.484375 C 5.492188 -0.742188 5.085938 -0.929688 4.765625 -1.046875 C 4.441406 -1.160156 4.117188 -1.21875 3.796875 -1.21875 C 3.242188 -1.21875 2.835938 -0.707031 2.578125 0.3125 L 1.703125 0.3125 C 1.816406 -1.351562 1.875 -4.269531 1.875 -8.4375 L 2.75 -8.4375 C 3.007812 -6.039062 3.648438 -4.113281 4.671875 -2.65625 C 5.691406 -1.207031 6.972656 -0.484375 8.515625 -0.484375 C 9.242188 -0.484375 9.847656 -0.6875 10.328125 -1.09375 C 10.816406 -1.5 11.0625 -2.097656 11.0625 -2.890625 C 11.0625 -3.703125 10.890625 -4.425781 10.546875 -5.0625 C 10.210938 -5.707031 9.804688 -6.285156 9.328125 -6.796875 C 8.847656 -7.304688 8.070312 -8.039062 7 -9 C 5.769531 -10.132812 4.832031 -11.035156 4.1875 -11.703125 C 3.550781 -12.378906 3.003906 -13.160156 2.546875 -14.046875 C 2.097656 -14.941406 1.875 -15.925781 1.875 -17 C 1.875 -18.25 2.253906 -19.351562 3.015625 -20.3125 C 3.773438 -21.28125 4.78125 -22.019531 6.03125 -22.53125 C 7.28125 -23.039062 8.632812 -23.296875 10.09375 -23.296875 Z M 10.09375 -23.296875 "/></g></g></g><g fill="#000000" fill-opacity="1"><g transform="translate(145.323756, 284.736778)"><g><path d="M 7.03125 -34.171875 C 8.550781 -34.171875 9.722656 -33.847656 10.546875 -33.203125 C 11.378906 -32.566406 11.796875 -31.640625 11.796875 -30.421875 C 11.796875 -29.191406 11.378906 -28.253906 10.546875 -27.609375 C 9.722656 -26.972656 8.550781 -26.65625 7.03125 -26.65625 C 5.488281 -26.65625 4.304688 -26.972656 3.484375 -27.609375 C 2.671875 -28.253906 2.265625 -29.191406 2.265625 -30.421875 C 2.265625 -31.640625 2.671875 -32.566406 3.484375 -33.203125 C 4.304688 -33.847656 5.488281 -34.171875 7.03125 -34.171875 Z M 11.234375 -4.0625 C 11.234375 -2.863281 11.414062 -2.039062 11.78125 -1.59375 C 12.144531 -1.144531 12.773438 -0.921875 13.671875 -0.921875 L 13.671875 0 C 10.523438 -0.113281 8.457031 -0.171875 7.46875 -0.171875 C 6.476562 -0.171875 4.296875 -0.113281 0.921875 0 L 0.921875 -0.921875 C 1.816406 -0.921875 2.445312 -1.144531 2.8125 -1.59375 C 3.175781 -2.039062 3.359375 -2.863281 3.359375 -4.0625 L 3.359375 -17.921875 C 3.359375 -19.253906 3.175781 -20.226562 2.8125 -20.84375 C 2.445312 -21.457031 1.816406 -21.765625 0.921875 -21.765625 L 0.921875 -22.6875 C 1.847656 -22.59375 2.75 -22.546875 3.625 -22.546875 C 6.65625 -22.546875 9.191406 -22.75 11.234375 -23.15625 Z M 11.234375 -4.0625 "/></g></g></g><g fill="#000000" fill-opacity="1"><g transform="translate(159.741551, 284.736778)"><g/></g></g><g fill="#000000" fill-opacity="1"><g transform="translate(169.4845, 284.736778)"><g><path d="M 27.96875 -3.671875 C 28.34375 -2.734375 28.753906 -2.039062 29.203125 -1.59375 C 29.660156 -1.144531 30.109375 -0.90625 30.546875 -0.875 L 30.546875 0 C 28.453125 -0.0820312 25.800781 -0.125 22.59375 -0.125 C 19.269531 -0.125 16.820312 -0.0820312 15.25 0 L 15.25 -0.875 C 16.351562 -0.9375 17.140625 -1.070312 17.609375 -1.28125 C 18.078125 -1.5 18.3125 -1.890625 18.3125 -2.453125 C 18.3125 -2.972656 18.132812 -3.671875 17.78125 -4.546875 L 15.203125 -11.71875 L 6.375 -11.71875 L 5.640625 -9.75 C 4.679688 -7.269531 4.203125 -5.375 4.203125 -4.0625 C 4.203125 -2.863281 4.535156 -2.046875 5.203125 -1.609375 C 5.867188 -1.179688 6.859375 -0.9375 8.171875 -0.875 L 8.171875 0 C 5.984375 -0.0820312 4.078125 -0.125 2.453125 -0.125 C 1.078125 -0.125 -0.046875 -0.0820312 -0.921875 0 L -0.921875 -0.875 C -0.191406 -0.988281 0.488281 -1.4375 1.125 -2.21875 C 1.769531 -3.007812 2.429688 -4.265625 3.109375 -5.984375 L 12.8125 -30.9375 C 13.738281 -30.882812 14.507812 -30.859375 15.125 -30.859375 C 15.707031 -30.859375 16.460938 -30.882812 17.390625 -30.9375 Z M 14.90625 -12.59375 L 10.921875 -23.515625 L 6.734375 -12.59375 Z M 14.90625 -12.59375 "/></g></g></g><g fill="#000000" fill-opacity="1"><g transform="translate(199.718203, 284.736778)"><g><path d="M 22.546875 -18.265625 C 21.941406 -18.265625 21.410156 -18.472656 20.953125 -18.890625 C 20.503906 -19.316406 20.28125 -19.910156 20.28125 -20.671875 C 20.28125 -21.367188 20.484375 -22.125 20.890625 -22.9375 C 19.609375 -22.414062 18.660156 -21.675781 18.046875 -20.71875 C 19.128906 -19.582031 19.671875 -18.109375 19.671875 -16.296875 C 19.671875 -13.992188 18.816406 -12.253906 17.109375 -11.078125 C 15.398438 -9.898438 13.117188 -9.3125 10.265625 -9.3125 C 9.710938 -9.3125 9.304688 -9.328125 9.046875 -9.359375 C 8.285156 -8.828125 7.90625 -8.210938 7.90625 -7.515625 C 7.90625 -6.585938 8.429688 -6.125 9.484375 -6.125 L 13.71875 -6.125 C 16.695312 -6.125 19.019531 -5.617188 20.6875 -4.609375 C 22.363281 -3.609375 23.203125 -2.039062 23.203125 0.09375 C 23.203125 1.601562 22.710938 2.96875 21.734375 4.1875 C 20.765625 5.414062 19.265625 6.394531 17.234375 7.125 C 15.210938 7.851562 12.6875 8.21875 9.65625 8.21875 C 6.65625 8.21875 4.296875 7.878906 2.578125 7.203125 C 0.859375 6.535156 0 5.59375 0 4.375 C 0 3.53125 0.421875 2.753906 1.265625 2.046875 C 2.109375 1.347656 3.390625 0.796875 5.109375 0.390625 L 5.546875 1.09375 C 4.765625 2.050781 4.375 2.984375 4.375 3.890625 C 4.375 5.023438 4.890625 5.90625 5.921875 6.53125 C 6.953125 7.15625 8.398438 7.46875 10.265625 7.46875 C 12.191406 7.46875 13.671875 7.082031 14.703125 6.3125 C 15.734375 5.539062 16.25 4.515625 16.25 3.234375 C 16.25 2.328125 15.90625 1.601562 15.21875 1.0625 C 14.539062 0.53125 13.34375 0.265625 11.625 0.265625 L 9.265625 0.265625 C 7.285156 0.265625 5.769531 -0.113281 4.71875 -0.875 C 3.664062 -1.632812 3.140625 -2.65625 3.140625 -3.9375 C 3.140625 -5.101562 3.554688 -6.117188 4.390625 -6.984375 C 5.222656 -7.859375 6.425781 -8.675781 8 -9.4375 C 5.78125 -9.726562 4.035156 -10.445312 2.765625 -11.59375 C 1.503906 -12.75 0.875 -14.316406 0.875 -16.296875 C 0.875 -18.597656 1.722656 -20.335938 3.421875 -21.515625 C 5.128906 -22.703125 7.410156 -23.296875 10.265625 -23.296875 C 13.328125 -23.296875 15.6875 -22.65625 17.34375 -21.375 C 17.90625 -22.125 18.578125 -22.71875 19.359375 -23.15625 C 20.148438 -23.59375 20.976562 -23.8125 21.84375 -23.8125 C 22.8125 -23.8125 23.554688 -23.539062 24.078125 -23 C 24.597656 -22.46875 24.859375 -21.78125 24.859375 -20.9375 C 24.859375 -20.113281 24.640625 -19.460938 24.203125 -18.984375 C 23.773438 -18.503906 23.222656 -18.265625 22.546875 -18.265625 Z M 10.265625 -10.09375 C 10.847656 -10.09375 11.289062 -10.566406 11.59375 -11.515625 C 11.90625 -12.460938 12.0625 -14.054688 12.0625 -16.296875 C 12.0625 -18.546875 11.90625 -20.140625 11.59375 -21.078125 C 11.289062 -22.023438 10.847656 -22.5 10.265625 -22.5 C 9.679688 -22.5 9.238281 -22.023438 8.9375 -21.078125 C 8.632812 -20.140625 8.484375 -18.546875 8.484375 -16.296875 C 8.484375 -14.054688 8.632812 -12.460938 8.9375 -11.515625 C 9.238281 -10.566406 9.679688 -10.09375 10.265625 -10.09375 Z M 10.265625 -10.09375 "/></g></g></g><g fill="#000000" fill-opacity="1"><g transform="translate(224.621687, 284.736778)"><g><path d="M 22.546875 -18.265625 C 21.941406 -18.265625 21.410156 -18.472656 20.953125 -18.890625 C 20.503906 -19.316406 20.28125 -19.910156 20.28125 -20.671875 C 20.28125 -21.367188 20.484375 -22.125 20.890625 -22.9375 C 19.609375 -22.414062 18.660156 -21.675781 18.046875 -20.71875 C 19.128906 -19.582031 19.671875 -18.109375 19.671875 -16.296875 C 19.671875 -13.992188 18.816406 -12.253906 17.109375 -11.078125 C 15.398438 -9.898438 13.117188 -9.3125 10.265625 -9.3125 C 9.710938 -9.3125 9.304688 -9.328125 9.046875 -9.359375 C 8.285156 -8.828125 7.90625 -8.210938 7.90625 -7.515625 C 7.90625 -6.585938 8.429688 -6.125 9.484375 -6.125 L 13.71875 -6.125 C 16.695312 -6.125 19.019531 -5.617188 20.6875 -4.609375 C 22.363281 -3.609375 23.203125 -2.039062 23.203125 0.09375 C 23.203125 1.601562 22.710938 2.96875 21.734375 4.1875 C 20.765625 5.414062 19.265625 6.394531 17.234375 7.125 C 15.210938 7.851562 12.6875 8.21875 9.65625 8.21875 C 6.65625 8.21875 4.296875 7.878906 2.578125 7.203125 C 0.859375 6.535156 0 5.59375 0 4.375 C 0 3.53125 0.421875 2.753906 1.265625 2.046875 C 2.109375 1.347656 3.390625 0.796875 5.109375 0.390625 L 5.546875 1.09375 C 4.765625 2.050781 4.375 2.984375 4.375 3.890625 C 4.375 5.023438 4.890625 5.90625 5.921875 6.53125 C 6.953125 7.15625 8.398438 7.46875 10.265625 7.46875 C 12.191406 7.46875 13.671875 7.082031 14.703125 6.3125 C 15.734375 5.539062 16.25 4.515625 16.25 3.234375 C 16.25 2.328125 15.90625 1.601562 15.21875 1.0625 C 14.539062 0.53125 13.34375 0.265625 11.625 0.265625 L 9.265625 0.265625 C 7.285156 0.265625 5.769531 -0.113281 4.71875 -0.875 C 3.664062 -1.632812 3.140625 -2.65625 3.140625 -3.9375 C 3.140625 -5.101562 3.554688 -6.117188 4.390625 -6.984375 C 5.222656 -7.859375 6.425781 -8.675781 8 -9.4375 C 5.78125 -9.726562 4.035156 -10.445312 2.765625 -11.59375 C 1.503906 -12.75 0.875 -14.316406 0.875 -16.296875 C 0.875 -18.597656 1.722656 -20.335938 3.421875 -21.515625 C 5.128906 -22.703125 7.410156 -23.296875 10.265625 -23.296875 C 13.328125 -23.296875 15.6875 -22.65625 17.34375 -21.375 C 17.90625 -22.125 18.578125 -22.71875 19.359375 -23.15625 C 20.148438 -23.59375 20.976562 -23.8125 21.84375 -23.8125 C 22.8125 -23.8125 23.554688 -23.539062 24.078125 -23 C 24.597656 -22.46875 24.859375 -21.78125 24.859375 -20.9375 C 24.859375 -20.113281 24.640625 -19.460938 24.203125 -18.984375 C 23.773438 -18.503906 23.222656 -18.265625 22.546875 -18.265625 Z M 10.265625 -10.09375 C 10.847656 -10.09375 11.289062 -10.566406 11.59375 -11.515625 C 11.90625 -12.460938 12.0625 -14.054688 12.0625 -16.296875 C 12.0625 -18.546875 11.90625 -20.140625 11.59375 -21.078125 C 11.289062 -22.023438 10.847656 -22.5 10.265625 -22.5 C 9.679688 -22.5 9.238281 -22.023438 8.9375 -21.078125 C 8.632812 -20.140625 8.484375 -18.546875 8.484375 -16.296875 C 8.484375 -14.054688 8.632812 -12.460938 8.9375 -11.515625 C 9.238281 -10.566406 9.679688 -10.09375 10.265625 -10.09375 Z M 10.265625 -10.09375 "/></g></g></g><g fill="#000000" fill-opacity="1"><g transform="translate(249.525171, 284.736778)"><g><path d="M 6.59375 0.3125 C 4.726562 0.3125 3.320312 -0.1875 2.375 -1.1875 C 1.4375 -2.195312 0.96875 -3.460938 0.96875 -4.984375 C 0.96875 -6.296875 1.304688 -7.378906 1.984375 -8.234375 C 2.671875 -9.097656 3.476562 -9.757812 4.40625 -10.21875 C 5.34375 -10.6875 6.554688 -11.171875 8.046875 -11.671875 C 9.617188 -12.191406 10.769531 -12.671875 11.5 -13.109375 C 12.226562 -13.546875 12.59375 -14.160156 12.59375 -14.953125 L 12.59375 -18.84375 C 12.59375 -19.769531 12.359375 -20.597656 11.890625 -21.328125 C 11.421875 -22.054688 10.617188 -22.421875 9.484375 -22.421875 C 8.578125 -22.421875 7.757812 -22.171875 7.03125 -21.671875 C 8.019531 -21.328125 8.753906 -20.8125 9.234375 -20.125 C 9.722656 -19.4375 9.96875 -18.671875 9.96875 -17.828125 C 9.96875 -16.691406 9.566406 -15.78125 8.765625 -15.09375 C 7.960938 -14.414062 6.992188 -14.078125 5.859375 -14.078125 C 4.722656 -14.078125 3.828125 -14.429688 3.171875 -15.140625 C 2.515625 -15.859375 2.1875 -16.769531 2.1875 -17.875 C 2.1875 -18.75 2.40625 -19.503906 2.84375 -20.140625 C 3.28125 -20.785156 3.960938 -21.367188 4.890625 -21.890625 C 6.523438 -22.828125 8.859375 -23.296875 11.890625 -23.296875 C 13.492188 -23.296875 14.875 -23.140625 16.03125 -22.828125 C 17.195312 -22.523438 18.191406 -21.953125 19.015625 -21.109375 C 19.597656 -20.492188 19.984375 -19.726562 20.171875 -18.8125 C 20.359375 -17.894531 20.453125 -16.617188 20.453125 -14.984375 L 20.453125 -3.28125 C 20.453125 -2.550781 20.503906 -2.054688 20.609375 -1.796875 C 20.710938 -1.535156 20.894531 -1.40625 21.15625 -1.40625 C 21.351562 -1.40625 21.566406 -1.46875 21.796875 -1.59375 C 22.035156 -1.726562 22.257812 -1.878906 22.46875 -2.046875 L 22.90625 -1.3125 C 21.644531 -0.226562 19.851562 0.3125 17.53125 0.3125 C 15.78125 0.3125 14.554688 0.015625 13.859375 -0.578125 C 13.160156 -1.179688 12.78125 -1.992188 12.71875 -3.015625 C 11.34375 -0.796875 9.300781 0.3125 6.59375 0.3125 Z M 10.96875 -3.1875 C 11.582031 -3.1875 12.125 -3.4375 12.59375 -3.9375 L 12.59375 -13.15625 C 12.320312 -12.71875 11.835938 -12.148438 11.140625 -11.453125 C 10.359375 -10.691406 9.757812 -9.953125 9.34375 -9.234375 C 8.9375 -8.523438 8.734375 -7.5625 8.734375 -6.34375 C 8.734375 -4.238281 9.476562 -3.1875 10.96875 -3.1875 Z M 10.96875 -3.1875 "/></g></g></g><g fill="#000000" fill-opacity="1"><g transform="translate(272.724741, 284.736778)"><g><path d="M 16.875 -23.296875 C 18.300781 -23.296875 19.328125 -22.859375 19.953125 -21.984375 C 20.578125 -21.109375 20.890625 -20.070312 20.890625 -18.875 C 20.890625 -17.5625 20.515625 -16.519531 19.765625 -15.75 C 19.023438 -14.976562 18.0625 -14.59375 16.875 -14.59375 C 15.613281 -14.59375 14.648438 -14.875 13.984375 -15.4375 C 13.316406 -16.007812 12.984375 -16.78125 12.984375 -17.75 C 12.984375 -19.46875 13.722656 -20.820312 15.203125 -21.8125 C 14.679688 -21.8125 14.21875 -21.707031 13.8125 -21.5 C 13.082031 -21.175781 12.46875 -20.65625 11.96875 -19.9375 C 11.476562 -19.226562 11.234375 -18.453125 11.234375 -17.609375 L 11.234375 -4.5 C 11.234375 -3.132812 11.515625 -2.195312 12.078125 -1.6875 C 12.648438 -1.175781 13.617188 -0.921875 14.984375 -0.921875 L 14.984375 0 C 14.609375 0 14.289062 -0.015625 14.03125 -0.046875 C 10.96875 -0.128906 8.925781 -0.171875 7.90625 -0.171875 C 7.007812 -0.171875 4.984375 -0.128906 1.828125 -0.046875 C 1.597656 -0.015625 1.296875 0 0.921875 0 L 0.921875 -0.921875 C 1.816406 -0.921875 2.445312 -1.144531 2.8125 -1.59375 C 3.175781 -2.039062 3.359375 -2.863281 3.359375 -4.0625 L 3.359375 -17.921875 C 3.359375 -19.253906 3.175781 -20.226562 2.8125 -20.84375 C 2.445312 -21.457031 1.816406 -21.765625 0.921875 -21.765625 L 0.921875 -22.6875 C 1.847656 -22.59375 2.75 -22.546875 3.625 -22.546875 C 6.65625 -22.546875 9.191406 -22.75 11.234375 -23.15625 L 11.234375 -20.015625 C 12.335938 -22.203125 14.21875 -23.296875 16.875 -23.296875 Z M 16.875 -23.296875 "/></g></g></g><g fill="#000000" fill-opacity="1"><g transform="translate(293.739776, 284.736778)"><g><path d="M 31.640625 -22.5 C 33.296875 -22.5 34.414062 -22.5625 35 -22.6875 L 35 -21.765625 C 34.394531 -21.535156 33.835938 -21.101562 33.328125 -20.46875 C 32.816406 -19.84375 32.34375 -18.863281 31.90625 -17.53125 L 26.4375 0 C 25.96875 -0.0625 25.269531 -0.09375 24.34375 -0.09375 C 23.382812 -0.09375 22.671875 -0.0625 22.203125 0 L 17 -15.125 L 13.03125 0 C 12.5625 -0.0625 11.859375 -0.09375 10.921875 -0.09375 C 9.960938 -0.09375 9.25 -0.0625 8.78125 0 L 2.046875 -19.3125 C 1.703125 -20.332031 1.3125 -20.992188 0.875 -21.296875 C 0.4375 -21.609375 -0.015625 -21.765625 -0.484375 -21.765625 L -0.484375 -22.6875 C 1.816406 -22.507812 4.410156 -22.421875 7.296875 -22.421875 C 8.753906 -22.421875 10.648438 -22.507812 12.984375 -22.6875 L 12.984375 -21.765625 C 12.078125 -21.765625 11.425781 -21.691406 11.03125 -21.546875 C 10.632812 -21.398438 10.4375 -21.109375 10.4375 -20.671875 C 10.4375 -20.585938 10.46875 -20.398438 10.53125 -20.109375 L 14.15625 -8 L 17.921875 -22.640625 L 17.96875 -22.640625 C 18.894531 -22.578125 19.59375 -22.546875 20.0625 -22.546875 C 20.644531 -22.546875 21.488281 -22.578125 22.59375 -22.640625 L 27.578125 -6.640625 L 29.453125 -12.890625 C 29.921875 -14.492188 30.15625 -15.894531 30.15625 -17.09375 C 30.15625 -18.539062 29.832031 -19.660156 29.1875 -20.453125 C 28.550781 -21.242188 27.691406 -21.679688 26.609375 -21.765625 L 26.609375 -22.6875 C 27.691406 -22.5625 29.367188 -22.5 31.640625 -22.5 Z M 31.640625 -22.5 "/></g></g></g><g fill="#000000" fill-opacity="1"><g transform="translate(328.604643, 284.736778)"><g><path d="M 6.59375 0.3125 C 4.726562 0.3125 3.320312 -0.1875 2.375 -1.1875 C 1.4375 -2.195312 0.96875 -3.460938 0.96875 -4.984375 C 0.96875 -6.296875 1.304688 -7.378906 1.984375 -8.234375 C 2.671875 -9.097656 3.476562 -9.757812 4.40625 -10.21875 C 5.34375 -10.6875 6.554688 -11.171875 8.046875 -11.671875 C 9.617188 -12.191406 10.769531 -12.671875 11.5 -13.109375 C 12.226562 -13.546875 12.59375 -14.160156 12.59375 -14.953125 L 12.59375 -18.84375 C 12.59375 -19.769531 12.359375 -20.597656 11.890625 -21.328125 C 11.421875 -22.054688 10.617188 -22.421875 9.484375 -22.421875 C 8.578125 -22.421875 7.757812 -22.171875 7.03125 -21.671875 C 8.019531 -21.328125 8.753906 -20.8125 9.234375 -20.125 C 9.722656 -19.4375 9.96875 -18.671875 9.96875 -17.828125 C 9.96875 -16.691406 9.566406 -15.78125 8.765625 -15.09375 C 7.960938 -14.414062 6.992188 -14.078125 5.859375 -14.078125 C 4.722656 -14.078125 3.828125 -14.429688 3.171875 -15.140625 C 2.515625 -15.859375 2.1875 -16.769531 2.1875 -17.875 C 2.1875 -18.75 2.40625 -19.503906 2.84375 -20.140625 C 3.28125 -20.785156 3.960938 -21.367188 4.890625 -21.890625 C 6.523438 -22.828125 8.859375 -23.296875 11.890625 -23.296875 C 13.492188 -23.296875 14.875 -23.140625 16.03125 -22.828125 C 17.195312 -22.523438 18.191406 -21.953125 19.015625 -21.109375 C 19.597656 -20.492188 19.984375 -19.726562 20.171875 -18.8125 C 20.359375 -17.894531 20.453125 -16.617188 20.453125 -14.984375 L 20.453125 -3.28125 C 20.453125 -2.550781 20.503906 -2.054688 20.609375 -1.796875 C 20.710938 -1.535156 20.894531 -1.40625 21.15625 -1.40625 C 21.351562 -1.40625 21.566406 -1.46875 21.796875 -1.59375 C 22.035156 -1.726562 22.257812 -1.878906 22.46875 -2.046875 L 22.90625 -1.3125 C 21.644531 -0.226562 19.851562 0.3125 17.53125 0.3125 C 15.78125 0.3125 14.554688 0.015625 13.859375 -0.578125 C 13.160156 -1.179688 12.78125 -1.992188 12.71875 -3.015625 C 11.34375 -0.796875 9.300781 0.3125 6.59375 0.3125 Z M 10.96875 -3.1875 C 11.582031 -3.1875 12.125 -3.4375 12.59375 -3.9375 L 12.59375 -13.15625 C 12.320312 -12.71875 11.835938 -12.148438 11.140625 -11.453125 C 10.359375 -10.691406 9.757812 -9.953125 9.34375 -9.234375 C 8.9375 -8.523438 8.734375 -7.5625 8.734375 -6.34375 C 8.734375 -4.238281 9.476562 -3.1875 10.96875 -3.1875 Z M 10.96875 -3.1875 "/></g></g></g><g fill="#000000" fill-opacity="1"><g transform="translate(351.804213, 284.736778)"><g><path d="M 11.09375 -4.0625 C 11.09375 -2.863281 11.273438 -2.039062 11.640625 -1.59375 C 12.003906 -1.144531 12.640625 -0.921875 13.546875 -0.921875 L 13.546875 0 C 10.398438 -0.113281 8.332031 -0.171875 7.34375 -0.171875 C 6.351562 -0.171875 4.164062 -0.113281 0.78125 0 L 0.78125 -0.921875 C 1.6875 -0.921875 2.320312 -1.144531 2.6875 -1.59375 C 3.050781 -2.039062 3.234375 -2.863281 3.234375 -4.0625 L 3.234375 -28.9375 C 3.234375 -30.269531 3.050781 -31.242188 2.6875 -31.859375 C 2.320312 -32.472656 1.6875 -32.78125 0.78125 -32.78125 L 0.78125 -33.6875 C 1.6875 -33.601562 2.59375 -33.5625 3.5 -33.5625 C 6.53125 -33.5625 9.0625 -33.765625 11.09375 -34.171875 Z M 11.09375 -4.0625 "/></g></g></g></svg>